<svg width="48" height="44" viewBox="0 0 48 44" fill="none" xmlns="http://www.w3.org/2000/svg">
<path d="M21.4457 0.103821C19.9692 1.53453 18.4241 4.13198 17.6428 6.20325C17.7853 6.249 17.9296 6.293 18.0704 6.33875C18.7743 6.56224 19.4694 6.78398 20.154 7.02683C20.0959 5.03299 20.6062 2.14518 21.4457 0.103821Z" fill="#0052C0"/>
<path d="M21.5143 0.0369568C21.502 0.0475155 21.4914 0.0580783 21.4808 0.0686371C21.4685 0.077436 21.458 0.0897496 21.4456 0.102068C20.6062 2.14342 20.0959 5.03124 20.1522 7.02332C21.231 7.40519 22.2868 7.84338 23.3093 8.43467C21.4369 4.95205 21.201 1.66476 21.5143 0.0369568Z" fill="#07ADA8"/>
<path d="M25.8627 9.17378L23.8636 4.91509L21.5512 0C21.5389 0.0105587 21.5266 0.0228758 21.5143 0.0369541L21.5125 0.0387156C21.1993 1.66476 21.4351 4.95205 23.3093 8.43819C24.3739 9.05235 25.4069 9.83194 26.403 10.8913L26.4047 10.8931L26.7479 11.2046L25.8627 9.17378Z" fill="#F15A23"/>
<path d="M39.9745 12.1338C38.9292 12.6617 37.8821 13.1897 36.835 13.7193C36.4883 13.8953 36.1364 14.0731 35.7879 14.249C35.7879 14.249 35.7879 14.249 35.7862 14.2508L35.707 14.4479C35.6823 14.5095 35.6577 14.5693 35.6331 14.6309C35.6067 14.6978 35.5785 14.7647 35.5486 14.8315C35.524 14.8896 35.4976 14.9477 35.4712 15.0075C35.443 15.0709 35.4131 15.1342 35.3832 15.2011C35.3216 15.3313 35.2582 15.4615 35.1914 15.5935C35.1579 15.6604 35.1227 15.729 35.0875 15.7959C34.9802 15.9983 34.8658 16.2042 34.7426 16.4136C34.6194 16.6212 34.4874 16.8324 34.3467 17.0471C34.2763 17.1527 34.2024 17.26 34.1267 17.3674C34.051 17.4747 33.9736 17.5821 33.8926 17.6912C33.7677 17.8584 33.6392 18.0203 33.5108 18.1769V18.1787C33.3805 18.3353 33.2503 18.4866 33.1183 18.6344C32.9599 18.8122 32.7998 18.9811 32.6379 19.1448C32.2085 19.583 31.7686 19.9701 31.3304 20.315C31.2811 20.3555 31.2283 20.3942 31.1773 20.4329C31.1262 20.4717 31.0752 20.5104 31.0224 20.5491C30.9978 20.5667 30.9767 20.5843 30.952 20.6019C30.9503 20.6036 30.9485 20.6054 30.9467 20.6054C30.9327 20.6177 30.9186 20.6265 30.9045 20.6371C30.9028 20.6388 30.8992 20.6406 30.8957 20.6424C30.8728 20.6582 30.8517 20.674 30.8288 20.6899C30.8218 20.6952 30.8148 20.6987 30.8077 20.7039C30.7426 20.7497 30.6775 20.7955 30.6106 20.8395C30.5367 20.8887 30.4628 20.9398 30.3889 20.9873C30.3203 21.033 30.2534 21.0753 30.1865 21.1175C30.1654 21.1298 30.1443 21.1421 30.1214 21.1545C30.1161 21.158 30.1126 21.1615 30.1056 21.1668C30.0968 21.1721 30.0897 21.1756 30.0809 21.1809C30.0721 21.1861 30.0633 21.1914 30.0545 21.1967C30.0493 21.1985 30.0457 21.202 30.0405 21.2037C30.0017 21.2284 29.9613 21.2512 29.9226 21.2759C29.8698 21.3076 29.817 21.3357 29.7642 21.3656C29.7431 21.3779 29.7219 21.3903 29.7008 21.4026C29.6656 21.4237 29.6304 21.4431 29.5952 21.4624C29.56 21.4818 29.5248 21.5011 29.4896 21.5187C29.4474 21.5434 29.4069 21.5645 29.3629 21.5874C29.3471 21.5962 29.3313 21.6032 29.3172 21.612C29.275 21.6331 29.2327 21.6542 29.1905 21.6736C29.1729 21.6824 29.1553 21.6912 29.1377 21.7018C29.1359 21.7018 29.1359 21.7035 29.1342 21.7035C29.1007 21.7193 29.0691 21.7369 29.0356 21.7528C29.0198 21.7616 29.0022 21.7686 28.9864 21.7774C28.9529 21.795 28.9177 21.8126 28.8843 21.8285C28.798 21.8689 28.7118 21.9076 28.6273 21.9464C28.5341 21.9868 28.4426 22.0273 28.3493 22.066C28.3071 22.0836 28.2631 22.1012 28.2226 22.1171C28.205 22.1259 28.1874 22.1329 28.1698 22.1417C28.1504 22.1487 28.1329 22.1558 28.1153 22.1628C28.0572 22.1857 28.0009 22.2068 27.9428 22.2297C27.8847 22.2508 27.8284 22.2719 27.7703 22.293C27.7052 22.3177 27.6419 22.3406 27.5768 22.3617C27.5116 22.3845 27.4465 22.4057 27.3832 22.4268C27.3515 22.4373 27.3216 22.4479 27.2934 22.4585C27.165 22.5007 27.033 22.5394 26.9028 22.5764C26.8904 22.5799 26.8781 22.5816 26.8658 22.5852C26.8429 22.5922 26.82 22.5975 26.7972 22.6063C26.7321 22.6256 26.667 22.6432 26.6001 22.6591C26.535 22.6767 26.4681 22.6943 26.403 22.7101C26.3713 22.7189 26.3379 22.7259 26.3062 22.733C26.2041 22.7576 26.1038 22.7805 26.0017 22.8034C25.9349 22.8175 25.8662 22.8315 25.8011 22.8439C25.7431 22.8562 25.6832 22.8685 25.6251 22.8791C25.5495 22.8931 25.4738 22.9072 25.3981 22.9213L25.2222 22.953C25.1289 22.9688 25.0356 22.9864 24.9423 23.004C24.8896 23.0128 24.8368 23.0234 24.7857 23.0339C24.7241 23.0462 24.6626 23.0585 24.5992 23.0709C24.5358 23.0832 24.4725 23.0955 24.4091 23.1096C24.337 23.1237 24.2666 23.1395 24.1927 23.1553C23.8618 23.2257 23.5222 23.3049 23.1755 23.3911C23.077 23.4158 22.9802 23.4404 22.8816 23.4668L22.8658 23.4721L22.8605 23.4739H22.8588C22.813 23.4862 22.7672 23.4985 22.7197 23.5108C22.5191 23.5636 22.315 23.6199 22.1091 23.6798C21.9032 23.7396 21.6938 23.8029 21.4844 23.8681C21.3753 23.9032 21.2644 23.9384 21.1535 23.9772C20.5974 24.1602 20.0308 24.3643 19.4536 24.5984C19.3374 24.6441 19.223 24.6916 19.1069 24.7409C18.9907 24.7902 18.8746 24.8395 18.7585 24.8905C18.7057 24.9134 18.6529 24.9362 18.6018 24.9591C18.5895 24.9662 18.5754 24.9714 18.5631 24.9802C18.5226 24.9978 18.4874 25.0119 18.4575 25.026C18.447 25.0295 18.4364 25.0348 18.4259 25.0383C18.3801 25.0577 18.3361 25.0788 18.2903 25.0999L18.2886 25.1017C18.2868 25.1034 18.2833 25.1034 18.2833 25.1034C18.2816 25.1034 18.2798 25.1052 18.278 25.1052C18.2094 25.1369 18.1408 25.1685 18.0721 25.2002C18.0035 25.2319 17.9349 25.2653 17.8662 25.2988C17.8557 25.304 17.8451 25.3093 17.8346 25.3146C17.824 25.3199 17.8117 25.3252 17.8011 25.3304C17.7519 25.3533 17.6991 25.3779 17.6515 25.4026C17.641 25.4079 17.6304 25.4114 17.6199 25.4167C17.6146 25.4184 17.6111 25.4202 17.6076 25.4219C17.5213 25.4642 17.4333 25.5064 17.3489 25.5486C17.2908 25.5768 17.2362 25.605 17.1782 25.6349C17.1306 25.6595 17.0796 25.6842 17.0321 25.7105C16.9828 25.7352 16.9336 25.7598 16.886 25.7862C16.8596 25.7985 16.8332 25.8109 16.8104 25.8249C16.7523 25.8566 16.6925 25.8865 16.6344 25.9182C16.5763 25.9499 16.5165 25.9798 16.4584 26.0115C16.3739 26.0572 16.2912 26.103 16.2085 26.1505C16.1663 26.1751 16.1258 26.198 16.0836 26.2226C16.0677 26.2314 16.0501 26.242 16.0343 26.2508C16.029 26.2526 16.0255 26.2543 16.022 26.2561C15.9657 26.2878 15.9111 26.3177 15.8601 26.3511C15.6876 26.4479 15.5204 26.5464 15.355 26.645C15.2758 26.6978 15.1931 26.7435 15.1122 26.7946C15.1104 26.7963 15.1069 26.7963 15.1069 26.7963C14.9432 26.8984 14.7813 26.9987 14.6212 27.1008C14.6212 27.1025 14.6194 27.1025 14.6194 27.1025C14.3431 27.2785 14.0757 27.4545 13.8117 27.634C13.78 27.6551 13.7519 27.6745 13.7255 27.6956C13.7255 27.6974 13.7237 27.6974 13.7237 27.6974C13.7026 27.7097 13.6832 27.7255 13.6639 27.7396C13.5266 27.8329 13.3929 27.9261 13.2609 28.0212C13.1078 28.1303 12.9582 28.2376 12.8121 28.3485C12.8033 28.3538 12.7945 28.3608 12.7857 28.3661C12.7752 28.3731 12.7646 28.3819 12.7558 28.3872C12.7365 28.4013 12.7189 28.4153 12.6995 28.4294C12.615 28.4945 12.5306 28.5561 12.4478 28.6195C12.3493 28.6934 12.2525 28.7673 12.1557 28.843C12.0589 28.9169 11.9657 28.9926 11.8706 29.0665C11.8073 29.1157 11.7457 29.165 11.6841 29.2143C11.6014 29.2794 11.5222 29.3445 11.4448 29.4079L11.443 29.4096C11.3603 29.4783 11.2794 29.5451 11.1984 29.6102C11.1192 29.6771 11.04 29.744 10.9608 29.8109C10.908 29.8549 10.857 29.8988 10.806 29.9428C10.7778 29.9675 10.7497 29.9904 10.7215 30.015C10.6933 30.0396 10.6652 30.0643 10.6388 30.0871C10.5913 30.1259 10.5473 30.1663 10.5033 30.2068C10.4347 30.2649 10.3678 30.3247 10.3009 30.3845C10.2358 30.4444 10.1689 30.5042 10.1038 30.5605C10.0352 30.6221 9.96831 30.6837 9.90144 30.7471C9.83457 30.8087 9.7677 30.8685 9.70434 30.9301C9.56884 31.055 9.44037 31.1782 9.31543 31.2979V31.2996L9.30311 31.3102C9.19752 31.4123 9.09545 31.5126 8.99514 31.6111L8.95643 31.6498C8.91772 31.6886 8.8878 31.7185 8.86668 31.7378C8.86668 31.7396 8.86492 31.7396 8.86492 31.7396L8.85965 31.7449V31.7466C8.85613 31.7484 8.85436 31.7519 8.85084 31.7554L8.84381 31.7642L8.84028 31.7677H8.83853C8.83853 31.766 8.83852 31.766 8.84028 31.766C8.84204 31.7642 8.84381 31.7607 8.84557 31.7589C8.84909 31.7554 8.85084 31.7519 8.85436 31.7484C8.95115 31.6217 9.04794 31.4967 9.14297 31.3718C9.31895 31.1448 9.49141 30.9178 9.66211 30.6925C9.88384 30.4004 10.1056 30.1135 10.322 29.8267C10.3238 29.8249 10.3273 29.8214 10.3291 29.8197C10.3308 29.8179 10.3343 29.8144 10.3361 29.8109V29.8091C11.5363 28.2376 12.6661 26.7435 13.6815 25.392L13.6832 25.3903C13.8997 25.0999 14.1091 24.8201 14.3167 24.5438C14.8412 23.8452 15.3286 23.1905 15.7739 22.5957C16.8526 21.1439 17.6832 20.0229 18.1707 19.3595L18.176 19.3542V19.3524C18.3115 19.1712 18.4188 19.0251 18.498 18.9195C19.4536 19.2873 20.6238 19.5988 21.8469 19.5988C21.9173 19.5988 21.9894 19.597 22.0633 19.5935L22.1478 19.5918C22.6775 19.5671 23.1914 19.4827 23.67 19.3366C23.7791 19.3049 24.0079 19.2169 24.2437 19.1237H24.2455L24.3299 19.0902C24.6326 18.9688 24.9265 18.8175 25.2098 18.638C25.2609 18.6063 25.3119 18.5728 25.3612 18.5394C25.7853 18.2526 26.1795 17.8971 26.5367 17.4818C26.5948 17.4167 26.6511 17.348 26.7057 17.2812V17.2794C26.7391 17.2389 26.7708 17.2002 26.8007 17.158C26.9608 16.9503 27.1104 16.7339 27.2459 16.5139C27.7316 15.7308 27.8425 14.7066 27.6894 13.7088C27.7035 13.6842 27.7246 13.6507 27.751 13.6102C27.7668 13.5838 27.7844 13.5574 27.8055 13.5275C27.8214 13.5047 27.8372 13.4818 27.8548 13.4554C28.2842 12.8307 29.4193 11.363 30.9344 10.7735C32.557 10.1435 34.1443 10.7013 34.4628 10.8192C34.5561 10.8579 34.6493 10.8949 34.7409 10.9354C34.7549 10.9424 34.7708 10.9494 34.7848 10.9565C34.8957 11.0058 34.9995 11.0585 35.0999 11.1131C35.1315 11.1307 35.1632 11.1483 35.1931 11.1641C35.223 11.1835 35.2512 11.1993 35.2829 11.2187H35.2846C35.3304 11.2468 35.3709 11.2715 35.4149 11.2979C35.4571 11.326 35.4976 11.3507 35.538 11.3806C35.568 11.3999 35.5961 11.4211 35.6243 11.4404C35.6436 11.4545 35.663 11.4686 35.6771 11.4791C35.7035 11.495 35.7263 11.5126 35.7492 11.5319C35.7809 11.553 35.8073 11.5742 35.8337 11.597C35.8918 11.6393 35.9428 11.6833 35.9903 11.7237C36.0361 11.7625 36.0801 11.7994 36.1205 11.8346C36.1223 11.8364 36.1223 11.8399 36.1258 11.8399C36.4179 11.8188 36.7365 11.8065 37.0726 11.8065C37.4738 11.8065 37.9032 11.8223 38.3555 11.8716C38.9538 11.9226 39.4958 12.0229 39.9745 12.1338Z" fill="#2AA8EA"/>
<path d="M25.2222 22.9459C24.4373 23.0849 23.5996 23.2644 22.7197 23.502C22.3167 23.6075 21.9032 23.729 21.4844 23.861C20.6045 24.139 19.6912 24.4734 18.7585 24.8799C18.4611 25.0066 18.1637 25.1438 17.8645 25.2881C17.7765 25.3286 17.6903 25.3709 17.6058 25.4131C17.5178 25.4553 17.4316 25.4976 17.3471 25.5398C17.2908 25.568 17.2345 25.5961 17.1764 25.6278C17.0796 25.6771 16.9811 25.7263 16.8843 25.7791C16.8579 25.7932 16.8333 25.8055 16.8086 25.8196C16.6907 25.8812 16.5728 25.9445 16.4567 26.0061C16.3722 26.0537 16.2895 26.0976 16.2068 26.1452C16.1645 26.168 16.1241 26.1927 16.0818 26.2156C16.066 26.2244 16.0484 26.2349 16.0325 26.2437C16.0273 26.2455 16.0238 26.249 16.0202 26.2508C15.9639 26.2807 15.9094 26.3123 15.8583 26.3458C15.6859 26.4426 15.5187 26.5411 15.3533 26.6414C15.2723 26.6925 15.1914 26.74 15.1104 26.7892C15.1087 26.791 15.1051 26.791 15.1051 26.791C14.9397 26.8931 14.7796 26.9934 14.6194 27.0954C14.3432 27.2732 14.0739 27.4492 13.8099 27.6287C13.78 27.6498 13.7501 27.6691 13.7219 27.6903C13.3682 27.9331 13.0286 28.176 12.6978 28.4206C12.6133 28.4839 12.5288 28.5473 12.4461 28.6124C12.1839 28.8077 11.9287 29.0083 11.6841 29.2072C11.6014 29.2705 11.5222 29.3374 11.443 29.4008C11.223 29.5803 11.0119 29.7598 10.806 29.9357C10.7497 29.9833 10.6933 30.0325 10.6388 30.08C10.5913 30.1205 10.5473 30.161 10.5015 30.1997C10.3643 30.3176 10.2323 30.4373 10.1021 30.5534C9.9648 30.6784 9.83105 30.8016 9.70083 30.923C9.56708 31.0479 9.43685 31.1711 9.31191 31.2908L9.2996 31.3031C9.13418 31.4632 8.97403 31.6199 8.82269 31.7694C9.33479 31.1025 9.83809 30.4461 10.3291 29.802C12.6432 26.7699 15.6911 24.3678 19.2054 22.8843C24.1153 20.8112 24.9353 18.8315 24.9353 18.8315C24.9353 18.8315 25.0849 20.8376 25.2222 22.9459Z" fill="#07ADA8"/>
<path d="M35.7862 14.2507L35.7087 14.4496C35.6841 14.5094 35.6595 14.5693 35.6331 14.6308C35.6067 14.6977 35.5785 14.7646 35.5486 14.8315C35.524 14.8895 35.4976 14.9476 35.4712 15.0074C35.443 15.0708 35.4131 15.1341 35.3832 15.201C35.3216 15.3295 35.26 15.4615 35.1914 15.5934C35.1579 15.6603 35.1227 15.729 35.0875 15.7958C34.9819 15.9982 34.8676 16.2041 34.7426 16.4135C34.6194 16.6212 34.4874 16.8323 34.3467 17.047C34.2763 17.1526 34.2024 17.26 34.1267 17.3673C34.051 17.4747 33.9736 17.582 33.8926 17.6911C33.7677 17.8583 33.6392 18.0202 33.5108 18.1768C33.5125 18.1786 33.5108 18.1786 33.5108 18.1786C33.3823 18.3352 33.2503 18.4865 33.1183 18.6344C32.9599 18.8121 32.7998 18.981 32.6379 19.1447C32.2085 19.5829 31.7686 19.97 31.3304 20.315C31.2811 20.3554 31.2283 20.3942 31.1773 20.4329C31.1262 20.4716 31.0752 20.5103 31.0224 20.549C30.9978 20.5666 30.9767 20.5842 30.952 20.6018C30.9503 20.6036 30.9485 20.6053 30.9467 20.6053C30.9327 20.6176 30.9186 20.6264 30.9045 20.637C30.9028 20.6388 30.8992 20.6405 30.8957 20.6423C30.8728 20.6581 30.8517 20.674 30.8288 20.6898C30.8218 20.6951 30.8148 20.6986 30.8077 20.7039C30.7426 20.7496 30.6775 20.7954 30.6106 20.8394C30.5367 20.8887 30.4628 20.9397 30.3889 20.9872C30.3203 21.033 30.2534 21.0752 30.1865 21.1174C30.1601 21.1333 30.1337 21.1509 30.1073 21.1667C30.0985 21.172 30.0915 21.1755 30.0827 21.1808C30.0739 21.1861 30.0651 21.1913 30.0563 21.1966C30.0123 21.2248 29.9701 21.2494 29.9243 21.2758C29.8715 21.3075 29.8187 21.3356 29.7659 21.3656C29.7448 21.3779 29.7237 21.3902 29.7026 21.4025C29.6674 21.4236 29.6322 21.443 29.597 21.4623C29.5213 21.5063 29.4439 21.5468 29.3647 21.5873C29.3489 21.5961 29.333 21.6031 29.3189 21.6119C29.2591 21.6418 29.1993 21.6718 29.1394 21.7017C29.1377 21.7017 29.1377 21.7034 29.1359 21.7034C29.1025 21.7193 29.0708 21.7369 29.0374 21.7527C28.9863 21.7773 28.9353 21.8037 28.8843 21.8284C28.798 21.8689 28.7118 21.9076 28.6273 21.9463C28.5341 21.9868 28.4426 22.0272 28.3493 22.066C28.2895 22.0924 28.2296 22.117 28.168 22.1416C28.0924 22.1715 28.0185 22.2015 27.941 22.2279C27.883 22.249 27.8266 22.2701 27.7686 22.2912C27.7035 22.3158 27.6401 22.3387 27.575 22.3598C27.4817 22.395 27.3849 22.4249 27.2899 22.4566C27.1614 22.4989 27.0295 22.5376 26.8992 22.5745C26.864 22.5851 26.8306 22.5957 26.7936 22.6045C26.7285 22.6238 26.6634 22.6414 26.5966 22.6572C26.5314 22.6748 26.4646 22.6924 26.3995 22.7083C26.3678 22.7171 26.3343 22.7241 26.3027 22.7312C26.2006 22.7558 26.1003 22.7787 25.9982 22.8015C25.9313 22.8156 25.8627 22.8297 25.7976 22.842C25.7395 22.8543 25.6797 22.8667 25.6216 22.8772C25.546 22.8913 25.4703 22.9054 25.3946 22.9194L22.8799 23.4632L22.864 23.4685L22.8588 23.4703H22.857L22.8447 23.472C23.6771 21.7562 24.1153 20.234 24.9494 18.9898C25.0321 18.8684 25.1166 18.7488 25.2063 18.6344C25.2573 18.6027 25.3084 18.5693 25.3577 18.5358C25.7818 18.249 26.176 17.8935 26.5332 17.4782C26.5913 17.4131 26.6476 17.3444 26.7021 17.2776V17.2758C26.7109 17.2705 26.718 17.267 26.7268 17.2617C31.6102 16.7021 35.5856 14.4179 35.7809 14.263C35.7844 14.2542 35.7844 14.2525 35.7862 14.2507Z" fill="#AE09C7"/>
<path d="M39.9745 12.1338C38.9292 12.6617 37.8821 13.1896 36.835 13.7193C36.4883 13.8953 36.1364 14.073 35.7879 14.249C35.7879 14.249 35.7879 14.249 35.7862 14.2508C35.7844 14.2525 35.7844 14.2543 35.7809 14.2561C35.6225 14.4373 32.8825 17.4659 26.5332 17.473C26.5913 17.4078 26.6476 17.3392 26.7021 17.2723V17.2706C26.7356 17.2301 26.7673 17.1914 26.7972 17.1492C26.9573 16.9415 27.1069 16.725 27.2424 16.5051C27.7281 15.722 27.839 14.6978 27.6859 13.7C27.6999 13.6753 27.7211 13.6419 27.7475 13.6014C27.7633 13.575 27.7809 13.5486 27.802 13.5187C27.8178 13.4958 27.8337 13.473 27.8513 13.4466C28.2807 12.8218 29.4157 11.3542 30.9309 10.7646C32.5534 10.1346 34.1408 10.6925 34.4593 10.8104C34.5526 10.8491 34.6458 10.8861 34.7373 10.9265C34.7514 10.9336 34.7673 10.9406 34.7813 10.9477C34.8922 10.9969 34.996 11.0497 35.0963 11.1043C35.128 11.1219 35.1597 11.1395 35.1896 11.1553C35.2195 11.1747 35.2477 11.1905 35.2794 11.2099H35.2811C35.3269 11.238 35.3673 11.2627 35.4113 11.2891C35.4536 11.3172 35.494 11.3419 35.5345 11.3718C35.5644 11.3911 35.5926 11.4122 35.6207 11.4316C35.6401 11.4457 35.6595 11.4598 35.6735 11.4703C35.6999 11.4862 35.7228 11.5038 35.7457 11.5231C35.7774 11.5442 35.8038 11.5653 35.8302 11.5882C35.8882 11.6305 35.9393 11.6745 35.9868 11.7149C36.0325 11.7536 36.0765 11.7906 36.117 11.8258C36.1188 11.8276 36.1188 11.8311 36.1223 11.8311C36.4144 11.81 36.7329 11.7976 37.0691 11.7976C37.4703 11.7976 37.8997 11.8135 38.3519 11.8628C38.9538 11.9226 39.4958 12.0229 39.9745 12.1338Z" fill="#0052C0"/>
<path d="M18.1725 19.3436L11.1333 27.2187L19.1157 21.4571L18.1725 19.3436Z" fill="#2AA8EA"/>
<path d="M16.1891 17.7369C16.2912 17.8056 16.9036 18.2121 17.817 18.6274C14.6317 18.1294 9.62514 16.1267 8.3053 8.58426C8.32993 8.65113 8.35457 8.71448 8.37744 8.77431C8.41264 8.8711 8.44961 8.96789 8.48656 9.05236C8.53935 9.19139 8.6027 9.32865 8.66958 9.47823C8.71885 9.58734 8.76813 9.69468 8.81564 9.78619C8.85788 9.87418 8.89835 9.96041 8.94586 10.0466C8.96522 10.0871 8.98633 10.1294 9.00745 10.1698L9.01977 10.1945C9.07257 10.2948 9.12712 10.3951 9.18343 10.4901C9.23798 10.5887 9.29606 10.6872 9.35237 10.7805C9.38405 10.835 9.41748 10.8913 9.44916 10.9406C9.50019 11.0233 9.55123 11.1043 9.60578 11.1905C10.3607 12.3449 11.2089 13.4254 12.1276 14.3951C13.6955 16.0651 15.2001 17.1333 16.1891 17.7369Z" fill="#F15A23"/>
<path d="M27.2459 13.6524C27.2406 13.619 27.2354 13.5873 27.2301 13.5556C27.172 13.2547 27.0875 12.9644 26.982 12.681V12.6758C26.9538 12.5983 26.9239 12.5226 26.8922 12.4487C26.6898 11.9736 26.4241 11.5442 26.1109 11.2134C26.0018 11.0972 25.8926 10.9864 25.7818 10.8772C25.1307 10.2314 24.4619 9.70171 23.7774 9.25121C22.6212 8.49274 21.4175 7.9648 20.1804 7.51957C19.2987 7.20105 18.3995 6.923 17.4879 6.63264C14.7831 5.76858 11.9586 4.77782 9.1201 2.22261C9.11658 2.22085 9.1113 2.22085 9.10954 2.22085C9.10778 2.21909 9.10778 2.21909 9.10778 2.21909C9.10602 2.21909 9.10602 2.21909 9.10602 2.21909C9.10426 2.22612 9.10427 2.23317 9.10251 2.24021C9.11483 2.33524 9.13418 2.44434 9.15881 2.56225C9.17465 2.6432 9.19577 2.72943 9.22041 2.81917C9.22569 2.83501 9.2292 2.85437 9.23624 2.87197C9.24856 2.91773 9.26265 2.967 9.27849 3.01628C9.31368 3.13066 9.35591 3.25033 9.40343 3.37351C9.44742 3.48438 9.4967 3.59876 9.55125 3.71491C9.60933 3.83457 9.67091 3.95424 9.74306 4.07567C9.76594 4.11614 9.79058 4.15662 9.81522 4.19709C9.86449 4.27804 9.91728 4.35899 9.97536 4.43994C10.0598 4.56137 10.1549 4.68455 10.2552 4.80598C10.3907 4.96788 10.542 5.12802 10.7109 5.28464C10.7919 5.36031 10.8764 5.43422 10.9644 5.50813C10.9802 5.52045 10.996 5.53453 11.0136 5.54685C11.0488 5.575 11.084 5.60316 11.121 5.62956C11.1667 5.66475 11.2125 5.69995 11.26 5.73515C11.2653 5.73691 11.267 5.74043 11.2706 5.74219C11.2723 5.74395 11.2758 5.74394 11.2758 5.7457C11.2776 5.74746 11.2776 5.74747 11.2776 5.74747C13.3858 7.21513 15.4272 7.81522 17.3981 8.41882C18.9274 8.88693 20.4127 9.35855 21.8487 10.2402C22.1302 10.4127 22.4118 10.6027 22.6898 10.8104C23.3286 11.289 23.9569 11.868 24.5763 12.5842C24.9248 12.989 25.1606 13.4166 25.3066 13.8513C25.3154 13.8794 25.326 13.9058 25.333 13.934C25.7202 15.1747 25.4017 16.4646 24.9441 17.4131C24.6573 18.0097 24.3141 18.4707 24.0572 18.6995C24.0959 18.6872 24.1329 18.6731 24.1698 18.659C24.1786 18.6573 24.1909 18.6538 24.1997 18.6502C24.2015 18.6485 24.2015 18.6485 24.2033 18.6485C24.5235 18.5218 24.8403 18.3546 25.1465 18.1452C25.4245 17.9586 25.6938 17.7351 25.9542 17.4712C26.1337 17.2899 26.308 17.0893 26.4769 16.8676C26.6212 16.6793 26.7602 16.4787 26.894 16.2622C27.3251 15.5565 27.4113 14.5922 27.2459 13.6524Z" fill="#F15A23"/>
<path d="M25.3295 13.9304C25.3225 13.9023 25.3137 13.8759 25.3031 13.8477C25.1571 13.4131 24.9212 12.9837 24.5728 12.5807C23.9551 11.8645 23.3251 11.2872 22.6863 10.8068C22.4083 10.5992 22.1267 10.4091 21.8451 10.2367C20.4092 9.355 18.9239 8.88338 17.3946 8.41527C15.4254 7.81167 13.3823 7.21158 11.2741 5.74392C11.2741 5.74392 11.2741 5.74391 11.2723 5.74215C11.2706 5.74039 11.2688 5.74039 11.2671 5.73863C11.2635 5.73687 11.2618 5.73336 11.2565 5.7316C11.1034 5.63305 9.96656 4.88689 8.92125 3.75887C8.78047 3.60753 8.64321 3.44915 8.5077 3.28549L8.50594 3.28373C8.35988 3.12359 8.21558 2.95641 8.06776 2.78571C8.05368 3.06727 8.02551 3.67616 8.02551 4.10731C8.02551 4.19178 8.02551 4.26921 8.02727 4.33784C8.02903 4.40119 8.0308 4.46807 8.03256 4.53318C8.03432 4.61589 8.0396 4.70036 8.04664 4.78659C8.05192 4.85874 8.05543 4.93089 8.06247 5.00656C8.06247 5.01008 8.06423 5.01536 8.06423 5.01888C8.06951 5.09103 8.07655 5.16142 8.08359 5.23533C8.09063 5.32156 8.09943 5.40955 8.11175 5.4993C8.12055 5.58025 8.13111 5.66296 8.14343 5.74392C8.14343 5.74567 8.14343 5.74743 8.14519 5.74919C8.29125 5.90758 8.55346 6.16098 8.91421 6.4707C8.91421 6.4707 8.91421 6.47246 8.91597 6.47246C8.96524 6.51646 9.0198 6.56221 9.07435 6.60797C10.5702 7.87149 13.4949 9.94277 16.8632 10.8438C19.7264 11.6093 21.9947 13.0171 23.1914 14.7804C23.714 15.5495 24.0308 16.3836 24.1082 17.2635C24.1487 17.7334 24.1205 18.2138 24.0167 18.7048C24.029 18.7012 24.0396 18.696 24.0519 18.6924C24.3088 18.4654 24.652 18.0044 24.9388 17.406C25.3982 16.461 25.7167 15.1711 25.3295 13.9304Z" fill="#0052C0"/>
<path d="M24.1117 17.2653C24.0361 16.3854 23.7175 15.5512 23.1949 14.7822C21.9965 13.0189 19.7299 11.6093 16.8667 10.8456C13.4985 9.94456 10.5737 7.87328 9.07787 6.60975C9.02332 6.564 8.96876 6.51825 8.91949 6.47425C8.91773 6.47425 8.91772 6.47249 8.91772 6.47249C8.55697 6.16101 8.29476 5.90936 8.1487 5.75098C8.15574 5.83017 8.16806 5.91112 8.18213 5.98855C8.19445 6.06774 8.20678 6.14517 8.22085 6.2226C8.26133 6.45841 8.30709 6.6995 8.36516 6.94411C8.381 7.01978 8.40035 7.0937 8.41795 7.17113C8.43731 7.24328 8.45666 7.31895 8.47778 7.39814C8.49537 7.47381 8.5165 7.54772 8.54114 7.62691C8.58689 7.78001 8.63264 7.93312 8.68543 8.08622C8.69775 8.12494 8.71183 8.16365 8.72415 8.20236C8.82798 8.32731 9.24857 8.82181 9.91025 9.45885C10.5895 10.1117 11.5205 10.916 12.6256 11.6304C12.6256 11.6304 12.6256 11.6322 12.6274 11.6322C13.5178 12.2094 14.5191 12.7268 15.5926 13.0611C17.7835 13.7457 19.8724 14.7664 21.4369 15.8821C22.7162 16.7919 23.6436 17.7668 23.9921 18.6696C24.0009 18.5587 24.015 18.3704 24.0185 18.7083H24.0202C24.1241 18.2173 24.1522 17.7351 24.1117 17.2653Z" fill="#07ADA8"/>
<path d="M24.0097 18.7101C24.0044 18.696 23.9991 18.6819 23.9938 18.6679C23.6454 17.7651 22.7162 16.7919 21.4386 15.8804C19.8724 14.7647 17.7835 13.744 15.5943 13.0594C14.5226 12.7251 13.5196 12.2077 12.6291 11.6305C12.6273 11.6305 12.6273 11.6287 12.6273 11.6287C11.5222 10.9142 10.5913 10.11 9.91199 9.45713V9.45537C9.25031 8.81833 8.82796 8.32383 8.7259 8.19888C8.72414 8.19712 8.72237 8.19536 8.72061 8.1936C8.73469 8.23408 8.74877 8.27632 8.76284 8.31679C8.79452 8.41358 8.83148 8.51212 8.87195 8.61067C8.90363 8.70042 8.94059 8.79017 8.97754 8.87992C9.02858 9.0119 9.08842 9.14389 9.14649 9.27587C9.194 9.3797 9.23975 9.48353 9.29254 9.58384C9.33302 9.66831 9.37174 9.75102 9.41749 9.83373C9.43861 9.87948 9.46324 9.927 9.48788 9.97275C9.53715 10.0678 9.58995 10.1628 9.6445 10.2561C9.69553 10.3476 9.7501 10.4426 9.80641 10.5341C9.83809 10.5869 9.868 10.6397 9.90143 10.6907C9.95071 10.7699 9.99998 10.8491 10.051 10.9283C10.8464 12.1443 11.6859 13.1844 12.5218 14.0695C13.9525 15.5935 15.3656 16.6511 16.4954 17.3392C16.4954 17.3392 17.4351 17.9868 18.8007 18.5007C19.0664 18.601 19.348 18.6943 19.6436 18.7787C19.6436 18.7787 19.6436 18.7787 19.6454 18.7787C20.3405 18.9776 21.1078 19.1149 21.8909 19.1149C22.586 19.1149 23.3251 18.9969 24.0149 18.7259V18.7242C24.0132 18.7189 24.0097 18.7154 24.0097 18.7101Z" fill="#AE09C7"/>
<path d="M5.89881 34.1695L3.93841 40.5347L1.97624 34.1695H0L3.22393 43.9364H4.65112L7.88913 34.1695H5.89881Z" fill="#0C3C52"/>
<path d="M12.6212 34.1696V35.8695H15.1729V43.9364H17.0788V35.8695H19.6304V34.1696H12.6212Z" fill="#0C3C52"/>
<path d="M26.9424 39.7252C27.4545 39.5421 27.8698 39.2447 28.1918 38.8347C28.5473 38.3684 28.7268 37.8105 28.7268 37.1611C28.7268 36.3112 28.4487 35.6073 27.8909 35.0494C27.3049 34.4651 26.527 34.1713 25.5592 34.1713H21.7299V43.9381H23.6357V35.8712H25.4325C25.8443 35.8712 26.1769 35.9909 26.4338 36.2285C26.6907 36.466 26.8192 36.7757 26.8192 37.1611C26.8192 37.5465 26.6907 37.8563 26.4338 38.0938C26.1769 38.3314 25.8443 38.4511 25.4325 38.4511H25.3638V40.7564L26.9142 43.9381H29.1227L26.9424 39.7252Z" fill="#0C3C52"/>
<path d="M37.6841 35.8712V34.1713H31.2503V43.9381H37.6841V42.2381H33.1579V39.8624H37.0136V38.1625H33.1579V35.8712H37.6841Z" fill="#0C3C52"/>
<path d="M44.5279 38.0534L47.7659 34.1713H45.4483L42.0044 38.4229V34.1713H40.0985V43.9381H42.0044V41.0028L43.2662 39.4929L45.7774 43.9381H48L44.5279 38.0534Z" fill="#0C3C52"/>
</svg>
